<?xml version="1.0" encoding="utf-8"?>
<!-- Generator: Adobe Illustrator 21.1.0, SVG Export Plug-In . SVG Version: 6.00 Build 0)  -->
<svg version="1.1" id="Ebene_1" xmlns="http://www.w3.org/2000/svg" xmlns:xlink="http://www.w3.org/1999/xlink" x="0px" y="0px"
	 viewBox="0 0 43.2 42.2" style="enable-background:new 0 0 43.2 42.2;" xml:space="preserve">
<style type="text/css">
	.st0{fill:#1F9AC1;}
</style>
<path class="st0" d="M30.1,14.3l-7.6,13.9c-0.5,0.9-1.3,0.9-1.7,0l-7.6-13.9c-0.5-0.9-0.1-1.3,0.8-1l6,2.2c0.9,0.3,2.5,0.3,3.4,0
	l6-2.2C30.2,13,30.6,13.4,30.1,14.3 M42.4,13.7L32.5,1.3C31.9,0.6,30.6,0,29.6,0H13.7c-1,0-2.3,0.6-2.9,1.3L0.8,13.8
	c-0.6,0.8-0.9,2.2-0.7,3.2l3.5,15.5c0.2,1,1.1,2.1,2,2.5L20,41.9c0.9,0.4,2.4,0.4,3.2,0L37.6,35c0.9-0.4,1.8-1.6,2-2.5l3.5-15.5
	C43.4,15.9,43.1,14.5,42.4,13.7"/>
</svg>
